<?xml version="1.0" encoding="utf-8"?>
<!-- Generator: Adobe Illustrator 16.0.0, SVG Export Plug-In . SVG Version: 6.00 Build 0)  -->
<!DOCTYPE svg PUBLIC "-//W3C//DTD SVG 1.1//EN" "http://www.w3.org/Graphics/SVG/1.1/DTD/svg11.dtd">
<svg version="1.1" id="图层_1" xmlns="http://www.w3.org/2000/svg" xmlns:xlink="http://www.w3.org/1999/xlink" x="0px" y="0px"
	 width="122.625px" height="46.328px" viewBox="0 0 122.625 46.328" enable-background="new 0 0 122.625 46.328"
	 xml:space="preserve">
<linearGradient id="SVGID_1_" gradientUnits="userSpaceOnUse" x1="309.1572" y1="-204.3618" x2="428.4854" y2="-204.3618" gradientTransform="matrix(1 0 0 -1 -307.5752 -181.1982)">
	<stop  offset="0" style="stop-color:#187FC4"/>
	<stop  offset="0.5025" style="stop-color:#179BD1;stop-opacity:0.2"/>
	<stop  offset="1" style="stop-color:#20B4D9"/>
</linearGradient>
<path fill="url(#SVGID_1_)" d="M61.246,0.014c-13.371,0.25-24.371,12.938-21.871,24.938c0.461,1.787,1.956,10.147,12.391,13.034
	l-0.01-0.012c-3.067-2.038-5.471-4.985-6.848-8.454c-0.824-2.076-1.291-4.332-1.291-6.701c0-10.045,8.143-18.189,18.188-18.189
	c10.044,0,18.189,8.144,18.189,18.189C79.686,43.201,57.06,42.889,48.873,41.889C29.983,39.582,12.477,25.16,12.477,25.16
	c5.141-2.182,12.019-11.058,12.019-11.058C8.954,24.839,1.582,22.276,1.582,22.276s34.939,30.115,63.736,22.948
	C75.784,42.615,84.484,34.15,84.484,22.82c0-6.792-2.99-12.882-7.721-17.038c17.873,4.457,33.488,18.637,33.488,18.637
	c-5.286,1.803-12.791,10.154-12.791,10.154c16.283-9.578,23.449-6.486,23.449-6.486S92.246-0.736,61.246,0.014z"/>
<radialGradient id="SVGID_2_" cx="62" cy="22.7261" r="11.75" gradientUnits="userSpaceOnUse">
	<stop  offset="0" style="stop-color:#20B4D9"/>
	<stop  offset="1" style="stop-color:#179BD1;stop-opacity:0"/>
</radialGradient>
<circle fill="url(#SVGID_2_)" cx="62" cy="22.726" r="11.75"/>
</svg>
